<svg width="83" height="82" viewBox="0 0 83 82" fill="none" xmlns="http://www.w3.org/2000/svg">
<g filter="url(#filter0_d_7389_3136)">
<rect x="5.62695" y="3" width="72" height="72" rx="36" fill="#86C240" shape-rendering="crispEdges"/>
<rect x="7.12695" y="4.5" width="69" height="69" rx="34.5" stroke="white" stroke-width="3" shape-rendering="crispEdges"/>
<path d="M36.0285 43.0001C35.8163 43.0001 35.6129 42.9159 35.4628 42.7658C35.3128 42.6158 35.2285 42.4123 35.2285 42.2001C35.2285 41.988 35.3128 41.7845 35.4628 41.6345C35.6129 41.4844 35.8163 41.4001 36.0285 41.4001H47.2285C47.4407 41.4001 47.6442 41.4844 47.7942 41.6345C47.9442 41.7845 48.0285 41.988 48.0285 42.2001C48.0285 42.4123 47.9442 42.6158 47.7942 42.7658C47.6442 42.9159 47.4407 43.0001 47.2285 43.0001H36.0285ZM36.0285 47.0001C35.8163 47.0001 35.6129 46.9159 35.4628 46.7658C35.3128 46.6158 35.2285 46.4123 35.2285 46.2001C35.2285 45.988 35.3128 45.7845 35.4628 45.6345C35.6129 45.4844 35.8163 45.4001 36.0285 45.4001H47.2285C47.4407 45.4001 47.6442 45.4844 47.7942 45.6345C47.9442 45.7845 48.0285 45.988 48.0285 46.2001C48.0285 46.4123 47.9442 46.6158 47.7942 46.7658C47.6442 46.9159 47.4407 47.0001 47.2285 47.0001H36.0285Z" fill="white"/>
<path fill-rule="evenodd" clip-rule="evenodd" d="M43.5237 24.6001H32.8277C32.1912 24.6001 31.5808 24.853 31.1307 25.303C30.6806 25.7531 30.4277 26.3636 30.4277 27.0001V51.0001C30.4277 51.6366 30.6806 52.2471 31.1307 52.6972C31.5808 53.1472 32.1912 53.4001 32.8277 53.4001H50.4277C51.0643 53.4001 51.6747 53.1472 52.1248 52.6972C52.5749 52.2471 52.8277 51.6366 52.8277 51.0001V34.5233C52.8276 33.9225 52.6021 33.3435 52.1957 32.9009L45.2933 25.3777C45.0684 25.1325 44.7949 24.9367 44.4903 24.8029C44.1856 24.669 43.8565 24.6 43.5237 24.6001ZM32.0277 27.0001C32.0277 26.7879 32.112 26.5844 32.262 26.4344C32.4121 26.2844 32.6156 26.2001 32.8277 26.2001H43.5237C43.6347 26.2 43.7446 26.223 43.8462 26.2676C43.9478 26.3122 44.0391 26.3775 44.1141 26.4593L51.0165 33.9825C51.1522 34.13 51.2275 34.3229 51.2277 34.5233V51.0001C51.2277 51.2123 51.1434 51.4158 50.9934 51.5658C50.8434 51.7158 50.6399 51.8001 50.4277 51.8001H32.8277C32.6156 51.8001 32.4121 51.7158 32.262 51.5658C32.112 51.4158 32.0277 51.2123 32.0277 51.0001V27.0001Z" fill="white"/>
<path d="M44.0273 26.3601V33.8801H51.5473" stroke="white" stroke-linecap="round" stroke-linejoin="round"/>
<path d="M38.6413 32.813C38.8698 32.82 39.0973 32.7811 39.3105 32.6984C39.5236 32.6158 39.718 32.4913 39.8821 32.3321C40.0462 32.173 40.1766 31.9825 40.2657 31.772C40.3548 31.5615 40.4007 31.3352 40.4007 31.1066C40.4007 30.878 40.3548 30.6518 40.2657 30.4412C40.1766 30.2307 40.0462 30.0403 39.8821 29.8811C39.718 29.722 39.5236 29.5974 39.3105 29.5148C39.0973 29.4322 38.8698 29.3932 38.6413 29.4002C38.1977 29.4138 37.7769 29.5995 37.468 29.9181C37.1591 30.2366 36.9863 30.6629 36.9863 31.1066C36.9863 31.5503 37.1591 31.9766 37.468 32.2952C37.7769 32.6137 38.1977 32.7994 38.6413 32.813Z" fill="white"/>
<path fill-rule="evenodd" clip-rule="evenodd" d="M42.0541 36.5106C42.0541 34.6962 40.5261 33.3826 38.6413 33.3826C36.7565 33.3826 35.2285 34.6946 35.2285 36.5106V37.365C35.2289 37.5158 35.2891 37.6602 35.3959 37.7667C35.5027 37.8732 35.6473 37.933 35.7981 37.933H41.4861C41.6366 37.9325 41.7809 37.8726 41.8873 37.7661C41.9937 37.6597 42.0537 37.5155 42.0541 37.365V36.5106Z" fill="white"/>
</g>
<defs>
<filter id="filter0_d_7389_3136" x="0.626953" y="0" width="82" height="82" filterUnits="userSpaceOnUse" color-interpolation-filters="sRGB">
<feFlood flood-opacity="0" result="BackgroundImageFix"/>
<feColorMatrix in="SourceAlpha" type="matrix" values="0 0 0 0 0 0 0 0 0 0 0 0 0 0 0 0 0 0 127 0" result="hardAlpha"/>
<feOffset dy="2"/>
<feGaussianBlur stdDeviation="2.5"/>
<feComposite in2="hardAlpha" operator="out"/>
<feColorMatrix type="matrix" values="0 0 0 0 0.231373 0 0 0 0 0.235294 0 0 0 0 0.239216 0 0 0 0.15 0"/>
<feBlend mode="normal" in2="BackgroundImageFix" result="effect1_dropShadow_7389_3136"/>
<feBlend mode="normal" in="SourceGraphic" in2="effect1_dropShadow_7389_3136" result="shape"/>
</filter>
</defs>
</svg>
