<svg width="83" height="82" viewBox="0 0 83 82" fill="none" xmlns="http://www.w3.org/2000/svg">
<g filter="url(#filter0_d_7389_3129)">
<rect x="5.62695" y="3" width="72" height="72" rx="36" fill="#86C240" shape-rendering="crispEdges"/>
<rect x="7.12695" y="4.5" width="69" height="69" rx="34.5" stroke="white" stroke-width="3" shape-rendering="crispEdges"/>
<path fill-rule="evenodd" clip-rule="evenodd" d="M31.627 28C31.3617 28 31.1074 28.1054 30.9198 28.2929C30.7323 28.4804 30.627 28.7348 30.627 29V49C30.627 49.2652 30.7323 49.5196 30.9198 49.7071C31.1074 49.8946 31.3617 50 31.627 50H42.127C42.5248 50 42.9063 50.158 43.1876 50.4393C43.4689 50.7206 43.627 51.1022 43.627 51.5C43.627 51.8978 43.4689 52.2794 43.1876 52.5607C42.9063 52.842 42.5248 53 42.127 53H31.627C30.5661 53 29.5487 52.5786 28.7985 51.8284C28.0484 51.0783 27.627 50.0609 27.627 49V29C27.627 27.9391 28.0484 26.9217 28.7985 26.1716C29.5487 25.4214 30.5661 25 31.627 25H51.627C52.6878 25 53.7052 25.4214 54.4554 26.1716C55.2055 26.9217 55.627 27.9391 55.627 29V41.5C55.627 41.8978 55.4689 42.2794 55.1876 42.5607C54.9063 42.842 54.5248 43 54.127 43C53.7291 43 53.3476 42.842 53.0663 42.5607C52.785 42.2794 52.627 41.8978 52.627 41.5V29C52.627 28.7348 52.5216 28.4804 52.3341 28.2929C52.1465 28.1054 51.8922 28 51.627 28H31.627ZM56.187 45.44C56.4679 45.7213 56.6256 46.1025 56.6256 46.5C56.6256 46.8975 56.4679 47.2787 56.187 47.56L51.187 52.56C50.9057 52.8409 50.5245 52.9987 50.127 52.9987C49.7295 52.9987 49.3482 52.8409 49.067 52.56L47.067 50.56C46.9196 50.4227 46.8014 50.2571 46.7194 50.0731C46.6374 49.8891 46.5933 49.6905 46.5898 49.489C46.5862 49.2876 46.6233 49.0876 46.6987 48.9008C46.7741 48.714 46.8864 48.5444 47.0289 48.4019C47.1713 48.2595 47.341 48.1472 47.5278 48.0718C47.7145 47.9963 47.9146 47.9593 48.116 47.9628C48.3174 47.9664 48.516 48.0105 48.7 48.0924C48.884 48.1744 49.0496 48.2926 49.187 48.44L50.127 49.38L54.067 45.44C54.3482 45.1591 54.7295 45.0013 55.127 45.0013C55.5245 45.0013 55.9057 45.1591 56.187 45.44ZM35.127 31C34.7291 31 34.3476 31.158 34.0663 31.4393C33.785 31.7206 33.627 32.1022 33.627 32.5C33.627 32.8978 33.785 33.2794 34.0663 33.5607C34.3476 33.842 34.7291 34 35.127 34H48.127C48.5248 34 48.9063 33.842 49.1876 33.5607C49.4689 33.2794 49.627 32.8978 49.627 32.5C49.627 32.1022 49.4689 31.7206 49.1876 31.4393C48.9063 31.158 48.5248 31 48.127 31H35.127ZM33.627 39C33.627 38.6022 33.785 38.2206 34.0663 37.9393C34.3476 37.658 34.7291 37.5 35.127 37.5H48.127C48.5248 37.5 48.9063 37.658 49.1876 37.9393C49.4689 38.2206 49.627 38.6022 49.627 39C49.627 39.3978 49.4689 39.7794 49.1876 40.0607C48.9063 40.342 48.5248 40.5 48.127 40.5H35.127C34.7291 40.5 34.3476 40.342 34.0663 40.0607C33.785 39.7794 33.627 39.3978 33.627 39ZM35.127 44C34.7291 44 34.3476 44.158 34.0663 44.4393C33.785 44.7206 33.627 45.1022 33.627 45.5C33.627 45.8978 33.785 46.2794 34.0663 46.5607C34.3476 46.842 34.7291 47 35.127 47H42.127C42.5248 47 42.9063 46.842 43.1876 46.5607C43.4689 46.2794 43.627 45.8978 43.627 45.5C43.627 45.1022 43.4689 44.7206 43.1876 44.4393C42.9063 44.158 42.5248 44 42.127 44H35.127Z" fill="white"/>
</g>
<defs>
<filter id="filter0_d_7389_3129" x="0.626953" y="0" width="82" height="82" filterUnits="userSpaceOnUse" color-interpolation-filters="sRGB">
<feFlood flood-opacity="0" result="BackgroundImageFix"/>
<feColorMatrix in="SourceAlpha" type="matrix" values="0 0 0 0 0 0 0 0 0 0 0 0 0 0 0 0 0 0 127 0" result="hardAlpha"/>
<feOffset dy="2"/>
<feGaussianBlur stdDeviation="2.5"/>
<feComposite in2="hardAlpha" operator="out"/>
<feColorMatrix type="matrix" values="0 0 0 0 0.231373 0 0 0 0 0.235294 0 0 0 0 0.239216 0 0 0 0.15 0"/>
<feBlend mode="normal" in2="BackgroundImageFix" result="effect1_dropShadow_7389_3129"/>
<feBlend mode="normal" in="SourceGraphic" in2="effect1_dropShadow_7389_3129" result="shape"/>
</filter>
</defs>
</svg>
